<svg width="26" height="33" viewBox="0 0 26 33" fill="none" xmlns="http://www.w3.org/2000/svg">
<path d="M21.1036 17.5232C21.1332 15.0812 22.3691 12.7706 24.3297 11.4915C23.0928 9.61708 21.0212 8.42863 18.8658 8.35707C16.5669 8.10102 14.3383 9.81679 13.1668 9.81679C11.9726 9.81679 10.169 8.38249 8.22675 8.4249C5.69512 8.51169 3.33501 10.039 2.10332 12.3877C-0.544328 17.2519 1.43058 24.4007 3.9668 28.3326C5.23573 30.258 6.71874 32.4086 8.65923 32.3324C10.5581 32.2488 11.2673 31.0475 13.5594 31.0475C15.8303 31.0475 16.4956 32.3324 18.4755 32.2839C20.5131 32.2488 21.7969 30.35 23.0213 28.4064C23.933 27.0345 24.6346 25.5183 25.1 23.9139C22.7055 22.8392 21.1064 20.2821 21.1036 17.5232Z" fill="#B2B2B2"/>
<path d="M17.3639 5.77126C18.4749 4.35603 19.0222 2.53699 18.8897 0.700439C17.1924 0.889611 15.6245 1.75042 14.4985 3.11136C13.3975 4.44106 12.8244 6.22809 12.9328 7.99445C14.6307 8.013 16.2999 7.17552 17.3639 5.77126Z" fill="#B2B2B2"/>
</svg>
