<svg width="26" height="30" viewBox="0 0 26 30" fill="none" xmlns="http://www.w3.org/2000/svg">
<path d="M1.36893 28.8418L14.2742 14.6382L1.37974 0.459961C1.03534 0.6807 0.822205 1.19179 0.822205 1.86081V27.4545C0.826824 28.1235 1.03225 28.5973 1.36893 28.8418V28.8418Z" fill="#B2B2B2"/>
<path d="M14.7363 14.2462L18.5804 10.0148L2.92604 0.567181C2.66244 0.39861 2.36302 0.30957 2.05807 0.309082L14.7348 14.2444L14.7363 14.2462Z" fill="#B2B2B2"/>
<path d="M14.7368 15.0327L2.01999 29.0292C2.33917 29.0351 2.65356 28.9434 2.92811 28.7643L18.6133 19.2913L14.7368 15.0327Z" fill="#B2B2B2"/>
<path d="M24.2516 13.4432L19.0422 10.2935L15.0931 14.6403L19.0716 19.0143L24.25 15.873C25.3512 15.2057 25.3512 14.1071 24.2516 13.4432Z" fill="#B2B2B2"/>
</svg>
