<svg width="130" height="30" viewBox="0 0 130 30" fill="none" xmlns="http://www.w3.org/2000/svg">
<path d="M43.3749 24H46.7349V17.448H47.3589C47.5749 17.952 47.7669 18.312 48.0069 18.672L51.5829 24H55.5429L50.8389 17.136C53.3829 16.584 54.8709 14.952 54.8709 12.288C54.8709 9 52.5669 7.152 48.7989 7.176L43.3749 7.2V24ZM46.7349 14.424V10.224H48.6069C50.4309 10.224 51.4629 10.968 51.4629 12.312C51.4629 13.68 50.4309 14.424 48.6069 14.424H46.7349ZM56.3537 24H59.5937V17.16C59.5937 15 60.8177 14.064 62.1857 14.064C63.7937 14.064 64.8737 15 64.8737 17.16V24H68.1137V16.368C68.1137 13.224 66.0497 11.232 63.3617 11.232C61.4897 11.232 60.2657 11.904 59.5937 13.248V6.48H56.3537V24ZM70.5866 29.016C73.5146 29.016 75.0746 27.312 76.1306 24.792L81.6506 11.52H77.8106L75.3866 18.648C75.1706 19.248 74.9786 19.992 74.8586 20.64C74.7386 19.992 74.5466 19.248 74.3306 18.648L71.9066 11.52H67.9946L72.9386 23.424L72.7706 23.952C72.4106 25.056 71.6186 25.848 70.3706 25.848C69.8426 25.848 69.3866 25.8 68.9066 25.68L68.4266 28.776C69.0746 28.968 69.9386 29.016 70.5866 29.016ZM87.3317 24H89.1077V21.12H87.7637C87.1397 21.12 86.7557 20.76 86.7557 19.968V14.28H89.3957V11.52H86.7557V8.664L83.5157 9V11.52H81.7637V14.28H83.5157V20.136C83.5157 22.848 84.8597 24 87.3317 24ZM90.4787 24H93.7187V17.16C93.7187 15 94.9427 14.064 96.3107 14.064C97.9187 14.064 98.9987 15 98.9987 17.16V24H102.239V16.368C102.239 13.224 100.175 11.232 97.4867 11.232C95.6147 11.232 94.3907 11.904 93.7187 13.248V6.48H90.4787V24ZM104.049 24H107.289V17.16C107.289 15 108.513 14.064 109.881 14.064C111.489 14.064 112.569 15 112.569 17.16V24H115.809V17.16C115.809 14.76 116.841 14.064 118.353 14.064C119.817 14.064 120.849 15 120.849 17.16V24H124.089V16.368C124.089 13.224 122.025 11.232 119.337 11.232C117.153 11.232 115.953 12.072 115.113 13.584C114.297 12.072 112.809 11.232 111.057 11.232C109.137 11.232 107.889 11.952 107.241 13.344V11.52H104.049V24Z" fill="#121212"/>
<path fill-rule="evenodd" clip-rule="evenodd" d="M14.9191 15.6725C14.5142 22.9881 8.00469 28.8159 0 28.901V0.996582C8.00469 1.08176 14.5142 6.90944 14.9191 14.2251C15.3187 7.00587 21.663 1.23567 29.5225 1.00296V28.8948C21.663 28.662 15.3187 22.8918 14.9191 15.6725Z" fill="#FF6428"/>
</svg>
